<svg width="56" height="56" viewBox="0 0 56 56" fill="none" xmlns="http://www.w3.org/2000/svg">
<rect width="56" height="56" rx="5.6" fill="#444444"/>
<line x1="16.8008" y1="17.2662" x2="39.2008" y2="17.2662" stroke="white" stroke-width="0.933333"/>
<path d="M16.4708 38.5962C16.653 38.7785 16.9485 38.7785 17.1308 38.5962L20.1006 35.6264C20.2829 35.4441 20.2829 35.1487 20.1006 34.9664C19.9184 34.7842 19.6229 34.7842 19.4406 34.9664L16.8008 37.6063L14.1609 34.9664C13.9787 34.7842 13.6832 34.7842 13.501 34.9664C13.3187 35.1487 13.3187 35.4441 13.501 35.6264L16.4708 38.5962ZM16.3341 17.7329V38.2662H17.2674V17.7329H16.3341Z" fill="white"/>
<path d="M27.67 38.5962C27.8523 38.7785 28.1477 38.7785 28.33 38.5962L31.2998 35.6264C31.4821 35.4441 31.4821 35.1487 31.2998 34.9664C31.1176 34.7842 30.8221 34.7842 30.6399 34.9664L28 37.6063L25.3601 34.9664C25.1779 34.7842 24.8824 34.7842 24.7002 34.9664C24.5179 35.1487 24.5179 35.4441 24.7002 35.6264L27.67 38.5962ZM27.5333 17.7329V38.2662H28.4667V17.7329H27.5333Z" fill="white"/>
<path d="M38.8692 38.5965C39.0515 38.7787 39.347 38.7787 39.5292 38.5965L42.499 35.6266C42.6813 35.4444 42.6813 35.1489 42.499 34.9667C42.3168 34.7844 42.0213 34.7844 41.8391 34.9667L39.1992 37.6065L36.5594 34.9667C36.3771 34.7844 36.0816 34.7844 35.8994 34.9667C35.7171 35.1489 35.7171 35.4444 35.8994 35.6266L38.8692 38.5965ZM38.7326 17.7332V38.2665H39.6659V17.7332H38.7326Z" fill="white"/>
</svg>
